<mxfile host="app.diagrams.net" agent="Mozilla/5.0 (Windows NT 10.0; Win64; x64) AppleWebKit/537.36 (KHTML, like Gecko) Chrome/133.0.0.0 Safari/537.36" version="26.0.16">
  <diagram name="Page-1" id="74e2e168-ea6b-b213-b513-2b3c1d86103e">
    <mxGraphModel dx="934" dy="485" grid="1" gridSize="10" guides="1" tooltips="1" connect="1" arrows="1" fold="1" page="1" pageScale="1" pageWidth="1100" pageHeight="850" background="none" math="0" shadow="0">
      <root>
        <mxCell id="0" />
        <mxCell id="1" parent="0" />
        <mxCell id="a6326b0RcAW5FDDvoWgY-6" style="edgeStyle=orthogonalEdgeStyle;rounded=0;orthogonalLoop=1;jettySize=auto;html=1;entryX=0.5;entryY=0;entryDx=0;entryDy=0;fillColor=#e3c800;strokeColor=#B09500;" edge="1" parent="1" source="a6326b0RcAW5FDDvoWgY-1" target="a6326b0RcAW5FDDvoWgY-2">
          <mxGeometry relative="1" as="geometry" />
        </mxCell>
        <mxCell id="a6326b0RcAW5FDDvoWgY-1" value="&lt;span&gt;Start by adding an Item&lt;/span&gt;" style="ellipse;whiteSpace=wrap;html=1;fontStyle=1;fillColor=#dae8fc;strokeColor=#6c8ebf;" vertex="1" parent="1">
          <mxGeometry x="450" y="80" width="100" height="60" as="geometry" />
        </mxCell>
        <mxCell id="a6326b0RcAW5FDDvoWgY-7" style="edgeStyle=orthogonalEdgeStyle;rounded=0;orthogonalLoop=1;jettySize=auto;html=1;entryX=0.5;entryY=0;entryDx=0;entryDy=0;fillColor=#e3c800;strokeColor=#B09500;" edge="1" parent="1" source="a6326b0RcAW5FDDvoWgY-2" target="a6326b0RcAW5FDDvoWgY-3">
          <mxGeometry relative="1" as="geometry" />
        </mxCell>
        <mxCell id="a6326b0RcAW5FDDvoWgY-2" value="&lt;b&gt;Input Details of the items&lt;/b&gt;" style="rounded=0;whiteSpace=wrap;html=1;fillColor=#fff2cc;strokeColor=#d6b656;" vertex="1" parent="1">
          <mxGeometry x="440" y="190" width="120" height="60" as="geometry" />
        </mxCell>
        <mxCell id="a6326b0RcAW5FDDvoWgY-8" style="edgeStyle=orthogonalEdgeStyle;rounded=0;orthogonalLoop=1;jettySize=auto;html=1;entryX=0.5;entryY=0;entryDx=0;entryDy=0;fillColor=#008a00;strokeColor=#005700;" edge="1" parent="1" source="a6326b0RcAW5FDDvoWgY-3" target="a6326b0RcAW5FDDvoWgY-4">
          <mxGeometry relative="1" as="geometry" />
        </mxCell>
        <mxCell id="a6326b0RcAW5FDDvoWgY-18" value="YES" style="edgeLabel;html=1;align=center;verticalAlign=middle;resizable=0;points=[];fontStyle=1" vertex="1" connectable="0" parent="a6326b0RcAW5FDDvoWgY-8">
          <mxGeometry x="-0.7059" y="4" relative="1" as="geometry">
            <mxPoint as="offset" />
          </mxGeometry>
        </mxCell>
        <mxCell id="a6326b0RcAW5FDDvoWgY-9" style="edgeStyle=orthogonalEdgeStyle;rounded=0;orthogonalLoop=1;jettySize=auto;html=1;entryX=1;entryY=0.25;entryDx=0;entryDy=0;fillColor=#e51400;strokeColor=#B20000;" edge="1" parent="1" source="a6326b0RcAW5FDDvoWgY-3" target="a6326b0RcAW5FDDvoWgY-2">
          <mxGeometry relative="1" as="geometry">
            <Array as="points">
              <mxPoint x="580" y="335" />
              <mxPoint x="580" y="205" />
            </Array>
          </mxGeometry>
        </mxCell>
        <mxCell id="a6326b0RcAW5FDDvoWgY-21" value="NO" style="edgeLabel;html=1;align=center;verticalAlign=middle;resizable=0;points=[];fontStyle=1" vertex="1" connectable="0" parent="a6326b0RcAW5FDDvoWgY-9">
          <mxGeometry x="-0.1142" relative="1" as="geometry">
            <mxPoint as="offset" />
          </mxGeometry>
        </mxCell>
        <mxCell id="a6326b0RcAW5FDDvoWgY-3" value="&lt;b&gt;&lt;font style=&quot;font-size: 11px;&quot;&gt;Validating the input&lt;/font&gt;&lt;/b&gt;" style="rhombus;whiteSpace=wrap;html=1;fillColor=#e1d5e7;strokeColor=#9673a6;" vertex="1" parent="1">
          <mxGeometry x="440" y="280" width="120" height="110" as="geometry" />
        </mxCell>
        <mxCell id="a6326b0RcAW5FDDvoWgY-10" style="edgeStyle=orthogonalEdgeStyle;rounded=0;orthogonalLoop=1;jettySize=auto;html=1;entryX=0;entryY=0.5;entryDx=0;entryDy=0;fillColor=#008a00;strokeColor=#005700;" edge="1" parent="1" source="a6326b0RcAW5FDDvoWgY-4" target="a6326b0RcAW5FDDvoWgY-5">
          <mxGeometry relative="1" as="geometry" />
        </mxCell>
        <mxCell id="a6326b0RcAW5FDDvoWgY-19" value="YES" style="edgeLabel;html=1;align=center;verticalAlign=middle;resizable=0;points=[];fontStyle=1" vertex="1" connectable="0" parent="a6326b0RcAW5FDDvoWgY-10">
          <mxGeometry x="-0.1974" y="-2" relative="1" as="geometry">
            <mxPoint as="offset" />
          </mxGeometry>
        </mxCell>
        <mxCell id="a6326b0RcAW5FDDvoWgY-11" style="edgeStyle=orthogonalEdgeStyle;rounded=0;orthogonalLoop=1;jettySize=auto;html=1;entryX=0;entryY=0.5;entryDx=0;entryDy=0;fillColor=#e51400;strokeColor=#B20000;" edge="1" parent="1" source="a6326b0RcAW5FDDvoWgY-4" target="a6326b0RcAW5FDDvoWgY-1">
          <mxGeometry relative="1" as="geometry">
            <Array as="points">
              <mxPoint x="360" y="480" />
              <mxPoint x="360" y="110" />
            </Array>
          </mxGeometry>
        </mxCell>
        <mxCell id="a6326b0RcAW5FDDvoWgY-20" value="NO" style="edgeLabel;html=1;align=center;verticalAlign=middle;resizable=0;points=[];fontStyle=1" vertex="1" connectable="0" parent="a6326b0RcAW5FDDvoWgY-11">
          <mxGeometry x="0.0214" y="-5" relative="1" as="geometry">
            <mxPoint as="offset" />
          </mxGeometry>
        </mxCell>
        <mxCell id="a6326b0RcAW5FDDvoWgY-4" value="&lt;b&gt;Checking duplicate items&lt;/b&gt;" style="rhombus;whiteSpace=wrap;html=1;fillColor=#e1d5e7;strokeColor=#9673a6;" vertex="1" parent="1">
          <mxGeometry x="445" y="420" width="110" height="120" as="geometry" />
        </mxCell>
        <mxCell id="a6326b0RcAW5FDDvoWgY-13" style="edgeStyle=orthogonalEdgeStyle;rounded=0;orthogonalLoop=1;jettySize=auto;html=1;entryX=0;entryY=0.5;entryDx=0;entryDy=0;fillColor=#008a00;strokeColor=#005700;" edge="1" parent="1" source="a6326b0RcAW5FDDvoWgY-5" target="a6326b0RcAW5FDDvoWgY-12">
          <mxGeometry relative="1" as="geometry" />
        </mxCell>
        <mxCell id="a6326b0RcAW5FDDvoWgY-5" value="&lt;b&gt;Add items to Inventory&lt;/b&gt;" style="rounded=0;whiteSpace=wrap;html=1;fillColor=#d5e8d4;strokeColor=#82b366;" vertex="1" parent="1">
          <mxGeometry x="610" y="450" width="120" height="60" as="geometry" />
        </mxCell>
        <mxCell id="a6326b0RcAW5FDDvoWgY-15" style="edgeStyle=orthogonalEdgeStyle;rounded=0;orthogonalLoop=1;jettySize=auto;html=1;entryX=0;entryY=0.5;entryDx=0;entryDy=0;fillColor=#008a00;strokeColor=#005700;" edge="1" parent="1" source="a6326b0RcAW5FDDvoWgY-12" target="a6326b0RcAW5FDDvoWgY-14">
          <mxGeometry relative="1" as="geometry" />
        </mxCell>
        <mxCell id="a6326b0RcAW5FDDvoWgY-12" value="&lt;b&gt;Display Confirmation message&lt;/b&gt;" style="rounded=0;whiteSpace=wrap;html=1;fillColor=#d5e8d4;strokeColor=#82b366;" vertex="1" parent="1">
          <mxGeometry x="760" y="450" width="120" height="60" as="geometry" />
        </mxCell>
        <mxCell id="a6326b0RcAW5FDDvoWgY-14" value="&lt;b&gt;End&lt;/b&gt;" style="ellipse;whiteSpace=wrap;html=1;fillColor=#f8cecc;strokeColor=#b85450;" vertex="1" parent="1">
          <mxGeometry x="930" y="450" width="100" height="60" as="geometry" />
        </mxCell>
      </root>
    </mxGraphModel>
  </diagram>
</mxfile>
